<svg width="118" height="118" viewBox="0 0 118 118" fill="none" xmlns="http://www.w3.org/2000/svg">
<path d="M82.2195 27.0927C79.9305 24.2278 73.67 20.9003 76.9135 16.0576C78.8381 13.1841 82.9043 13.3573 85.9295 12.7392C89.6481 11.9795 88.965 5.09539 94.3758 4.02153C100.081 3.60628 100.399 9.29595 103.307 12.6316C107.179 13.443 113.076 12.837 113.922 18.0366C114.661 22.5813 109.967 24.2056 107.82 27.2835C107.977 31.3034 110.876 37.5538 105.535 39.5988C102.066 40.9272 98.8367 38.3387 95.8143 37.0104L94.9496 36.7049C91.1738 37.9659 86.6738 42.2634 82.9835 38.4686C79.9614 35.3609 82.1393 30.8174 82.2195 27.0927ZM94.8138 7.88394C92.8638 8.50076 91.4127 14.4094 89.2223 15.7678C87.1858 17.0309 81.0803 16.4456 80.0277 18.3086C78.9606 20.1975 85.7582 24.0024 86.1321 26.5538C86.3935 28.3369 84.3603 35.4252 86.0095 36.166C87.5322 36.8501 92.0788 32.7719 95.4103 32.8312C98.1043 33.4064 103.176 37.6829 104.993 35.3004C105.024 30.06 101.854 27.7481 106.09 23.6001C107.064 22.6466 111.336 19.5429 109.769 17.9587C108.185 16.3583 102.682 17.3295 100.545 15.374C98.4795 13.4831 97.2239 7.75211 94.8138 7.88394Z" fill="#1C2B35"/>
<path d="M76.4433 62.7369C75.9713 61.7876 75.4456 60.8446 75.1818 59.8088C74.4605 56.9768 74.3632 49.926 78.2816 49.0318C79.8744 48.8782 81.3657 49.3148 82.9139 49.621C89.9161 51.0052 97.0338 51.0768 104.081 49.9134C105.453 49.687 109.809 48.4963 110.996 49.3662C113.477 51.1831 113.731 59.5672 111.328 62.7157C113.3 66.2162 113.449 71.3077 111.113 74.7243C113.256 77.6243 113.302 84.2868 111.111 87.113C113.302 90.1188 113.244 96.5582 110.748 99.4214C112.004 101.384 112.301 106.971 111.703 109.184C109.795 116.239 91.4035 115.122 86.0294 114.335C81.8065 113.717 77.7625 112.792 75.518 108.675C66.0001 116.861 52.4758 117.267 43.6084 107.711C39.1629 115.883 25.5137 115.489 17.6587 114.456C13.4396 113.901 9.394 112.99 6.6646 109.414C4.40614 106.136 3.27699 101.099 4.50254 97.2844C6.97734 89.5807 29.6857 88.5023 37.1254 90.9777C37.3828 87.2643 37.7073 84.5992 39.2607 81.1358C47.3084 63.1937 70.0339 62.4979 79.7708 79.8362C80.6522 81.406 81.372 84.5522 83.0844 85.3267C88.9698 87.989 100.644 87.8548 106.599 85.4864C110.213 84.0493 109.228 79.862 107.893 76.9068C99.2152 79.2912 89.6901 80.0916 81.1412 76.7268C74.2115 73.9991 73.9488 69.2461 76.4433 62.7369ZM79.1088 52.7066C77.7313 59.7671 78.9679 60.9928 85.6988 62.219C91.2095 63.2231 103.212 63.5478 108.072 60.4481C110.034 58.9908 109.248 55.0317 108.752 53.0172C106.599 53.2603 104.47 53.7861 102.318 54.0796C96.0242 54.9377 89.2903 54.9165 83.0507 53.5461C81.752 53.2608 80.427 52.8784 79.1088 52.7066ZM79.7234 64.4685C77.9654 68.946 78.1937 71.6837 82.81 73.3457C88.2082 75.2892 102.4 76.1578 107.524 72.6461C109.973 70.7905 108.871 67.333 108.082 64.8624C99.7867 67.3964 87.5472 67.7737 79.7234 64.4685ZM59.0068 71.175C48.126 71.7711 40.3541 81.7398 40.9832 92.4705C41.6356 103.597 50.2156 111.281 61.1121 110.92C72.0859 110.382 79.5149 100.594 78.8755 89.8609C78.2502 79.3717 69.5442 70.9263 59.0068 71.175ZM107.904 89.2093C99.865 91.3445 90.6974 92.1858 82.7629 89.2722C82.7039 92.047 82.468 94.2456 82.2491 96.9636C82.6215 97.152 82.9904 97.3491 83.3783 97.5027C89.7849 100.064 100.132 100.297 106.474 97.4991C107.262 97.1512 108.262 96.6338 108.605 95.7887C108.985 94.8527 108.846 89.478 107.904 89.2093ZM24.192 93.7926C20.6926 93.9342 11.0185 94.9761 8.68765 97.586C6.69052 99.8222 18.735 101.316 22.5173 101.355C28.2497 101.423 32.921 101.079 38.2662 98.7409C37.926 97.5617 37.697 96.3411 37.32 95.176C33.9448 93.9153 27.7594 93.5221 24.192 93.7926ZM80.8838 100.591C80.2076 102.328 78.9945 103.835 78.3852 105.557C79.7397 109.299 82.4523 109.924 85.9841 110.461C90.854 111.2 101.164 111.557 105.987 109.698L106.082 109.66C108.841 108.197 108.342 103.537 107.328 101.256C105.719 101.721 104.175 102.375 102.527 102.707C95.895 104.042 87.0051 103.234 80.8838 100.591ZM39.7443 102.454C37.6118 103.135 35.4695 103.955 33.2772 104.406C25.6776 105.969 15.1842 105.329 8.0284 102.684C8.35383 104.638 8.95122 106.114 10.1764 107.67C13.4381 110.985 20.055 111.05 24.3678 111.07C29.9418 111.096 38.6136 110.894 40.93 104.658C40.7648 104.177 40.2845 102.536 39.7443 102.454Z" fill="#1C2B35"/>
<path d="M59.1203 77.6454C59.1991 76.3918 59.2373 75.3376 60.5966 75.0001C62.6827 74.9872 61.951 76.3001 62.3576 77.5788C64.2941 78.3858 68.1996 81.7845 64.7986 82.7778C63.3506 83.2007 62.6694 81.3787 61.6263 80.8217C59.5269 79.7004 57.9874 81.7289 58.2291 83.7569C58.5457 86.4115 61.8378 87.1058 63.645 88.376C68.9641 92.1138 67.6719 99.1258 61.7889 101.329C62.7084 106.443 58.8664 105.568 58.7606 102.623L58.8282 101.663C53.9098 100.61 51.3491 94.4287 54.1714 93.8409C56.3113 93.3954 55.8802 96.5073 57.928 97.8068C60.5905 99.4965 64.8182 96.8557 63.7424 93.5289C62.4849 89.6405 56.7434 89.9801 55.3948 85.3344C54.501 82.2556 56.0028 78.5603 59.1203 77.6454Z" fill="#1C2B35"/>
</svg>
