<svg width="118" height="118" viewBox="0 0 118 118" fill="none" xmlns="http://www.w3.org/2000/svg">
<path d="M36.3253 50.2794C29.0962 50.6453 23.5437 48.0618 18.3634 43.0904C13.7513 38.6642 9.11224 31.6326 9.00198 25.0466C8.82055 14.2069 21.1609 8.5802 25.6541 16.6925C28.8827 22.5219 27.1482 12.1943 29.1018 10.0021C32.2954 6.418 50.1765 4.41748 54.9187 4.14123C61.6211 3.62231 70.8209 4.59682 77.2456 6.02838C79.8482 6.60845 86.7337 8.29306 88.1915 10.5184C89.7187 12.85 88.6661 16.3923 89.8012 18.1789C91.0319 18.9881 91.5651 16.8309 92.019 16.0626C96.1217 9.11507 108.898 13.906 107.95 25.9409C106.98 38.2497 93.6545 51.2633 80.6832 50.1987C79.2419 52.88 76.9901 55.4224 75.072 57.7814L68.9938 65.3769C63.9385 71.7748 61.3535 76.0641 67.5404 83.5905C70.3745 87.0381 72.1677 87.6208 72.1208 92.351L72.3602 92.3455C81.5713 92.1755 80.9848 96.9865 83.791 103.218C84.7529 105.354 86.6807 106.939 86.6881 109.417C86.7079 115.956 79.1087 114.943 74.8899 114.944L61.9104 114.942L38.6242 114.945C37.4941 114.954 36.3176 115.035 35.1967 114.886C31.714 114.425 29.6068 110.887 30.7718 107.633C31.3214 106.099 32.6035 104.926 33.2875 103.438C34.4299 100.953 34.5971 97.9124 36.3065 95.7294C39.2157 92.0146 41.4267 92.9417 44.8908 92.4917L45.0407 92.4714C44.6214 89.3296 45.8106 87.6481 47.877 85.4448C51.2347 81.8643 54.62 76.8132 52.4877 71.739C51.6176 69.6689 49.951 67.7839 48.5975 66.0096C44.5565 60.7131 40.0508 55.8118 36.3253 50.2794ZM55.8138 7.85246C48.7461 8.03252 38.2374 9.20015 31.9186 12.6682C31.169 17.3774 31.7048 21.1819 32.4996 25.7867C33.978 34.3529 35.7082 43.2388 40.8983 50.4155C44.7538 55.7468 53.9123 65.0518 56.0929 70.7669C60.608 82.6003 46.1831 89.1476 49.1121 92.2585C49.6653 92.846 53.1885 92.5891 54.0047 92.5884L61.1564 92.6C62.1058 92.5934 67.5264 92.7392 67.8943 92.381C68.2152 92.0687 68.2888 91.4543 68.3865 91.0323C67.7522 88.7793 65.582 87.0185 64.1472 85.2193C60.3752 80.4896 58.8303 74.1966 61.9372 68.6804C63.3862 66.1073 66.9536 61.9049 68.8886 59.4817C78.8771 46.9728 81.4005 43.4179 84.3054 26.3288C84.9401 22.5939 86.1494 16.6591 85.2837 13.0339C84.5442 12.2001 83.3475 11.7769 82.3287 11.3872C75.3044 8.70153 63.4531 7.25934 55.8138 7.85246ZM18.3907 16.7442C13.9118 17.4782 12.1908 22.6836 12.8541 26.681C14.1468 34.4713 21.9079 43.3091 29.5653 45.8549C31.1296 46.2965 32.6636 46.5972 34.2944 46.6353C31.1965 39.5452 29.2769 29.9359 28.0704 22.1043C19.9763 22.6002 24.8485 15.826 18.3907 16.7442ZM97.4282 16.7408C92.6537 17.5319 96.3929 22.3815 88.7956 22.1606C87.4945 30.5061 86.0162 38.7607 82.6365 46.5614C84.6755 46.573 86.6044 46.2066 88.5078 45.4747C96.2764 42.4071 107.248 29.8943 103.625 20.9526C102.49 18.1516 100.46 16.531 97.4282 16.7408ZM43.2389 96.288C37.6299 96.5618 38.6442 101.174 36.7452 105.053C36.0276 106.519 34.4772 107.894 34.0818 109.398C34.7914 112.149 38.1532 111.231 40.589 111.229L49.8566 111.228C57.942 111.228 66.0407 111.329 74.1246 111.214L78.5195 111.236C83.2993 111.236 84.1857 110.666 81.5489 106.976C79.5005 104.109 79.6904 99.5852 77.1129 97.3005C75.5623 95.9257 73.6464 96.3308 71.7498 96.3257L49.0949 96.3291C47.1479 96.3288 45.1821 96.2457 43.2389 96.288Z" fill="#1C2B35"/>
<path d="M52.7705 24.5179C54.2053 22.2287 54.6431 17.7247 57.863 17.0112C62.1156 16.7419 62.716 21.3861 64.3167 24.5609C67.4934 24.9876 74.5213 24.1905 73.9693 28.8401C73.7109 31.0168 69.3008 33.7178 67.5855 35.0739C68.1272 37.0233 69.448 40.0815 69.4689 41.9779C69.4935 44.2266 67.0377 45.4361 64.9767 44.8553C63.5632 44.4567 60.9564 42.7419 59.5594 41.9892C59.2522 41.8452 58.9321 41.7199 58.6199 41.5865C56.0091 42.5931 52.9557 45.2676 50.0171 44.6788C45.7296 43.8201 48.8727 37.6025 49.4029 35.1929C47.2143 33.0174 41.0754 30.2384 43.5979 26.7609C45.2414 24.495 50.1381 24.9198 52.7705 24.5179ZM58.3152 21.2423C56.3045 29.1825 54.787 28.0495 47.6205 28.8038C54.2639 34.6424 54.3671 32.372 51.8016 40.8001C53.6115 40.0467 57.0823 37.4157 58.9404 37.6068C61.2058 38.2819 63.3865 39.7611 65.3708 40.9893C62.7378 33.5108 63.0129 33.4629 69.4044 28.8363C67.589 28.7012 64.3462 28.6067 62.7087 27.9552C59.6968 26.757 59.8762 22.949 58.3152 21.2423Z" fill="#1C2B35"/>
<path d="M73.1962 107.828C71.3045 107.958 69.395 107.914 67.4998 107.913L50.2803 107.916C48.8965 107.916 45.1828 108.244 44.0039 107.604C42.1898 106.619 43.0215 104.625 45.0076 104.099C46.2037 103.99 47.4597 104.07 48.6625 104.072L66.2145 104.078C67.7594 104.078 72.7368 103.776 74.0035 104.361C75.9004 105.236 74.7827 107.433 73.1962 107.828Z" fill="#1C2B35"/>
</svg>
