<svg width="118" height="118" viewBox="0 0 118 118" fill="none" xmlns="http://www.w3.org/2000/svg">
<path d="M61.1375 113.954C31.6005 115.162 6.18705 92.3491 4.13301 62.7867C2.17651 34.6285 22.015 9.63652 49.758 4.84406C52.1701 4.42743 54.6186 4.28167 57.0575 4.11714C59.198 3.85061 61.6028 4.0979 63.7488 4.27612C101.179 7.38481 124.445 47.2629 109.332 81.1302C100.535 100.846 82.3885 112.804 61.1375 113.954ZM56.6028 7.78715C24.7941 9.40611 2.25747 39.2461 8.82741 69.8822C14.032 94.1526 36.6563 111.58 61.5417 110.248C75.0004 109.666 87.7045 103.465 96.774 93.576C116.025 72.5851 114.366 40.1217 93.3347 20.9956C83.6727 12.2088 69.7227 6.90074 56.6028 7.78715Z" fill="#1C2B35"/>
<path d="M15.4774 50.2688C8.60747 84.1941 43.3259 113.324 75.4159 100.358C76.7591 99.815 81.7728 96.259 81.9241 100.077C81.9908 101.766 79.4362 102.574 78.2264 103.112C61.1363 110.707 40.2758 106.866 26.5774 94.2803C12.0963 80.9756 7.03079 59.3354 14.2757 41.1104C21.3859 23.2238 37.5512 11.7253 57.0466 11.0365C67.0034 10.6538 77.3706 13.2816 85.7152 18.7238C107.465 32.9084 113.51 63.1986 99.3554 84.6291C98.7782 85.5029 97.627 87.4208 96.8642 88.0608C95.4975 89.2075 93.2489 87.6812 93.8874 85.9992C94.2049 85.1624 94.9911 84.3444 95.5112 83.6083C113.728 57.8258 98.9328 21.4053 67.1759 15.5075C42.9708 11.0123 19.992 25.949 15.4774 50.2688Z" fill="#1C2B35"/>
<path d="M59.4404 36.9931C48.7113 37.3983 47.9563 19.7215 58.6412 19.0086C68.6305 18.5681 70.5863 35.1641 59.4404 36.9931ZM58.4235 22.9613C52.3945 23.9372 53.6739 33.5538 59.5893 33.0285C65.4572 31.7265 64.1753 22.2051 58.4235 22.9613Z" fill="#1C2B35"/>
<path d="M54.0638 99.3677C49.7515 97.3586 50.3002 93.1907 50.633 89.1702L51.1224 83.6414C51.763 76.5647 52.8908 65.5235 52.176 58.4482C51.943 56.1405 50.2245 56.6738 48.7489 55.4356C46.6873 53.7063 46.4113 50.6277 48.1186 48.5512C50.6458 45.4773 55.0036 43.3594 58.9428 43.0217C64.6173 42.7026 66.239 45.9242 66.7387 51.3626C67.032 54.5526 66.999 57.7328 66.9988 60.9321C66.9988 67.6512 66.7975 89.5556 64.7593 94.9416C63.1016 99.3221 58.2066 101.045 54.0638 99.3677ZM59.1985 46.5775C56.8586 46.9026 50.3304 49.6331 50.5877 51.7352C50.7034 52.6817 52.023 52.9605 52.7222 53.2854C56.5078 55.0454 55.8219 60.6528 55.8107 64.0972C55.7823 72.9372 54.7149 81.6502 54.1441 90.4472C54.0563 91.8026 53.5972 93.9898 54.4359 95.1798C56.0229 96.8295 58.7617 96.8079 60.3807 95.2086C62.3432 93.2698 62.3263 88.7509 62.5296 86.1851C62.9832 80.4589 63.3628 73.8691 63.3902 68.0975L63.3918 60.7384C63.3925 58.2498 63.7349 48.8656 62.029 47.2089C61.3198 46.5198 60.1351 46.4401 59.1985 46.5775Z" fill="#1C2B35"/>
</svg>
