<svg width="118" height="118" viewBox="0 0 118 118" fill="none" xmlns="http://www.w3.org/2000/svg">
<path d="M54.1294 37.6655C55.555 37.9471 57.2725 38.5274 59.1505 39.2056C59.6112 39.372 60.0813 39.5441 60.5584 39.7189C62.1514 40.3023 63.8223 40.9143 65.4822 41.4346C67.6394 42.1108 69.7966 42.6384 71.7677 42.7503C73.7385 42.8622 75.5495 42.5599 76.9889 41.5478C79.5859 39.722 80.0835 35.9809 78.2639 33.4563L78.0611 33.6025L78.2639 33.4563C77.4991 32.3953 76.5089 31.4767 75.5605 30.5968C75.3509 30.4023 75.1432 30.2097 74.9405 30.0178L74.9392 30.0165L53.7814 10.2869C53.7812 10.2866 53.7809 10.2864 53.7807 10.2861C53.3578 9.88478 52.9118 9.43341 52.445 8.9609C51.4539 7.95788 50.3687 6.85956 49.2107 5.94199C47.4992 4.58585 45.5618 3.56511 43.407 3.77813L43.4028 3.77861C41.7512 3.96978 40.3774 4.74444 39.1488 5.71553C38.315 6.37455 37.5314 7.1391 36.7726 7.87936C36.4221 8.22132 36.0769 8.55811 35.7345 8.87691L35.7343 8.87715L17.3326 26.0617C17.3325 26.0617 17.3325 26.0618 17.3325 26.0618C16.9415 26.4257 16.468 26.8406 15.9468 27.2973C14.2139 28.8159 11.9534 30.7969 10.4417 32.9024C9.45603 34.2752 8.76005 35.737 8.75011 37.193C8.74004 38.6674 9.4331 40.0867 11.1187 41.3593L11.2669 41.1631L11.1187 41.3594C12.5878 42.4684 14.454 42.8074 16.4886 42.7082C18.5229 42.6089 20.7535 42.0702 22.9792 41.3939C24.3486 40.9778 25.7298 40.505 27.0661 40.0476C27.8966 39.7633 28.7098 39.485 29.4919 39.2299C31.429 38.5981 33.1821 38.1067 34.6094 37.9829C34.6245 39.0991 34.5643 40.2094 34.5037 41.3293C34.4728 41.8996 34.4418 42.4724 34.4205 43.0498C34.4205 43.0502 34.4205 43.0506 34.4205 43.051L33.7785 56.9794L33.7785 56.9809C33.7415 57.9 33.7536 58.8207 33.7674 59.7343L33.769 59.8393C33.7824 60.7194 33.7956 61.5928 33.7676 62.4631C33.7676 62.4632 33.7676 62.4633 33.7676 62.4634L32.9145 87.6913L32.9145 87.6919C32.8604 89.4045 32.7296 90.9989 32.6052 92.5146C32.5682 92.9643 32.5319 93.407 32.4983 93.8438C32.3518 95.7483 32.2577 97.5391 32.4042 99.2719C32.6989 102.757 33.9657 105.987 37.6656 109.487C39.5636 111.282 41.4098 112.226 43.1785 112.506C44.949 112.785 46.6162 112.394 48.1466 111.566C51.0915 109.971 53.5517 106.745 55.3553 103.467C65.2878 116.579 82.9208 118.855 96.4181 109.756L96.4182 109.756L96.4237 109.752C118.142 94.2393 111.064 60.4031 84.3325 56.0091C73.1366 54.1686 61.7162 58.5474 55.2432 67.8775L54.2668 41.9942L54.2668 41.9933C54.2542 41.6918 54.2407 41.3911 54.2272 41.0912C54.1756 39.9447 54.1244 38.8075 54.1294 37.6655ZM39.3354 10.4492L39.3355 10.4491C39.5799 10.2206 39.8194 9.9829 40.0605 9.74359C40.4651 9.34214 40.8741 8.93618 41.3182 8.56158C42.0126 7.97586 42.7454 7.51154 43.5677 7.34423C44.7156 7.25765 45.8331 7.87575 46.8993 8.75449C47.4305 9.19227 47.9378 9.68528 48.4194 10.1686C48.5396 10.2892 48.6585 10.4096 48.7759 10.5284C49.1254 10.8822 49.4611 11.222 49.7752 11.5126C49.7753 11.5127 49.7754 11.5128 49.7755 11.5129L66.1587 26.8018L66.16 26.8031C66.5121 27.1267 67.0652 27.5882 67.7273 28.1407C68.0445 28.4054 68.3868 28.691 68.7439 28.9923C69.8525 29.9274 71.1162 31.0234 72.263 32.1486C73.4124 33.2762 74.4325 34.4218 75.0629 35.4555C75.705 36.5083 75.8869 37.3512 75.5507 37.9424L75.7128 38.0346L75.5507 37.9424C75.1415 38.6619 74.1625 39.0023 72.7365 39.0214C71.3311 39.0402 69.5912 38.7446 67.8084 38.3094C64.8688 37.5917 61.8623 36.5075 60.1249 35.881C59.7558 35.7479 59.444 35.6355 59.2023 35.5516C58.9002 35.4467 58.5787 35.3245 58.2404 35.1954L58.2025 35.181C57.8769 35.0567 57.5367 34.927 57.1899 34.8035C56.4706 34.5474 55.7111 34.314 54.9668 34.208C54.2225 34.1019 53.4777 34.1207 52.796 34.3839C52.1087 34.6494 51.5074 35.1549 51.0412 35.9815L51.0412 35.9815C50.7936 36.4205 50.6648 37.1232 50.5983 37.9172C50.5308 38.723 50.5251 39.6652 50.5484 40.6126C50.5717 41.5609 50.6243 42.5201 50.6748 43.3608C50.6857 43.5438 50.6966 43.721 50.707 43.891C50.7446 44.5051 50.7766 45.0269 50.7884 45.4007L50.7884 45.4026L51.549 64.9316C51.5772 65.7331 51.615 66.5367 51.6528 67.3408C51.7538 69.4874 51.8549 71.6371 51.7731 73.7567C51.7487 74.3885 51.5605 75.0319 51.3269 75.6951C51.2634 75.8753 51.1961 76.0582 51.1282 76.2425C50.9511 76.7233 50.7706 77.2135 50.6459 77.6914C49.101 83.6067 49.2126 90.3742 51.311 96.1605C51.502 96.6872 51.718 97.21 51.9318 97.7274C51.9946 97.8795 52.0573 98.0311 52.119 98.1822C52.3923 98.8508 52.6503 99.5142 52.845 100.19C52.8451 100.19 52.8452 100.191 52.8453 100.191L52.861 100.247C51.8975 103.309 49.1263 106.777 46.3795 108.412C44.1858 109.517 41.8912 108.568 39.9814 106.792C38.0734 105.017 36.632 102.485 36.1917 100.642C36.0601 100.091 35.9996 99.3076 35.988 98.3827C35.9764 97.4617 36.0134 96.4165 36.0706 95.3498C36.1204 94.421 36.1861 93.4712 36.248 92.5765C36.3273 91.4285 36.4004 90.3711 36.4258 89.5646L37.9614 42.1803C37.9614 42.1802 37.9614 42.1801 37.9614 42.1799C37.9762 41.7615 38.0068 41.329 38.0396 40.8858C38.0428 40.8427 38.046 40.7996 38.0492 40.7564C38.079 40.3557 38.1093 39.947 38.1294 39.5389C38.174 38.6358 38.1696 37.7184 37.9942 36.8552C37.7387 35.5984 37.093 34.8531 36.2075 34.4915C35.3429 34.1384 34.2853 34.166 33.2191 34.3609C32.1476 34.5568 31.0331 34.9287 30.0363 35.2988C29.6322 35.4489 29.251 35.5972 28.899 35.7341C28.3714 35.9394 27.9095 36.1191 27.5347 36.2408C27.4649 36.2635 27.3911 36.2875 27.3136 36.3127C25.8458 36.7903 23.0293 37.7068 20.2461 38.3378C18.7806 38.6701 17.3332 38.9212 16.1021 38.989C14.8554 39.0576 13.8889 38.9338 13.3369 38.573C12.6495 38.1237 12.4 37.622 12.3864 37.1134C12.3722 36.5838 12.612 35.9972 13.0115 35.3928C13.6884 34.3689 14.7534 33.3937 15.5152 32.6963C15.6535 32.5695 15.7819 32.452 15.8962 32.345C15.8962 32.3449 15.8963 32.3448 15.8964 32.3448L39.3354 10.4492ZM77.304 59.2891L77.304 59.2893L77.3125 59.2881C84.0164 58.3603 90.7436 60.7595 95.9735 65.0856C101.204 69.4119 104.917 75.6496 105.608 82.3674C107.12 97.0759 96.1468 110.131 81.5069 111.554C58.1513 113.799 44.4098 86.8199 59.2893 68.4799C63.9563 62.7277 70.0469 60.0434 77.304 59.2891Z" fill="#1C2B35" stroke="#1C2B35" stroke-width="0.5"/>
<path d="M78.1203 74.6454C78.1991 73.3918 78.2373 72.3376 79.5966 72.0001C81.6827 71.9872 80.951 73.3001 81.3576 74.5788C83.2941 75.3858 87.1996 78.7845 83.7986 79.7778C82.3506 80.2007 81.6694 78.3787 80.6263 77.8217C78.5269 76.7004 76.9874 78.7289 77.2291 80.7569C77.5457 83.4115 80.8378 84.1058 82.645 85.376C87.9641 89.1138 86.6719 96.1258 80.7889 98.3285C81.7084 103.443 77.8664 102.568 77.7606 99.623L77.8282 98.6634C72.9098 97.6098 70.3491 91.4287 73.1714 90.8409C75.3113 90.3954 74.8802 93.5073 76.928 94.8068C79.5905 96.4965 83.8182 93.8557 82.7424 90.5289C81.4849 86.6405 75.7434 86.9801 74.3948 82.3344C73.501 79.2556 75.0028 75.5603 78.1203 74.6454Z" fill="#1C2B35"/>
</svg>
