<svg width="118" height="118" viewBox="0 0 118 118" fill="none" xmlns="http://www.w3.org/2000/svg">
<path d="M55.9874 95.3877C49.5235 98.9465 48.5988 98.0399 42.7457 94.0377C24.9203 81.849 12.0647 68.918 8.13145 46.4691C7.16598 40.9586 7.02689 35.2318 7.00052 29.647C6.95817 20.6804 9.49968 21.5527 16.5271 20.6306C26.2141 19.3595 35.967 16.7597 42.6502 9.08884C44.6362 6.8092 45.2706 4.58387 48.55 4.02661C52.2738 3.68614 53.4947 6.68138 55.5676 9.0893C61.9339 16.4838 72.1844 19.3684 81.4969 20.5664C85.262 21.0506 90.9027 20.6843 91.7697 25.8597C92.2806 28.9077 91.1103 38.0517 90.8623 41.4027C96.4225 44.847 100.41 51.3166 101.084 57.7848C101.328 60.1321 101.229 62.4893 101.186 64.8436C108.57 65.2735 109.324 70.5968 108.909 76.411C107.762 92.5139 100.22 104.573 86.2748 112.577C79.0454 116.725 77.5269 115.146 70.7539 110.868C64.036 106.459 59.9691 102.198 55.9874 95.3877ZM48.8285 7.30711C47.4641 7.58304 46.6758 9.38457 45.8892 10.394C39.5336 18.5489 28.6733 22.3848 18.7832 23.6982C17.0789 23.9247 11.6348 23.9201 10.6082 25.4376C9.96422 26.3892 10.1739 27.7561 10.204 28.8373L10.3456 32.8182C10.5731 38.0558 10.7032 43.2296 11.827 48.3719C16.476 69.6431 30.4178 82.293 47.7164 93.4179C50.348 95.1103 52.0732 93.5427 54.5163 92.4078C52.5273 88.2224 48.5958 74.6067 50.2616 69.8625C51.3245 66.836 54.2695 65.0578 57.3606 64.8379C55.6836 51.6916 62.5699 40.422 76.1408 38.6897C79.8658 38.2144 84.1645 38.3339 87.6525 39.8105C87.9444 36.9565 88.1382 34.0964 88.3383 31.2349C88.6761 26.3998 89.8256 24.7052 84.1545 24.214C72.7135 23.2238 60.2796 19.9939 52.6126 10.8209C51.5374 9.53449 50.7505 7.25039 48.8285 7.30711ZM79.6116 41.679C68.6165 41.9414 60.0375 49.433 60.404 60.8139C60.4475 62.159 60.5884 63.4992 60.6021 64.8457C62.5097 64.8491 64.4208 64.8781 66.327 64.802C65.7506 59.8471 65.6136 55.6112 68.9071 51.4386C71.2836 48.4277 74.8516 46.6369 78.655 46.4428C86.5823 46.3834 92.0957 53.1456 92.1689 60.8198C92.1819 62.1647 92.0093 63.4907 91.9364 64.8306L97.9567 64.858C98.3135 58.4412 97.5904 52.6108 93.1153 47.5962C89.6501 43.713 84.7913 41.5912 79.6116 41.679ZM78.7755 49.7449C75.997 49.9227 73.6704 51.0625 71.8129 53.1593C68.9078 56.4388 69.112 60.7492 69.5832 64.832C72.894 64.8793 76.208 64.8498 79.5193 64.848L88.6105 64.8505C89.6959 57.7083 87.0623 49.8562 78.7755 49.7449ZM57.3715 68.241C53.5029 68.5093 52.9768 70.9476 53.3028 74.3544C54.2647 84.4079 57.544 94.309 64.6556 101.706C67.5689 104.737 76.9372 111.981 80.2177 111.685C83.0114 111.432 90.6936 105.904 93.3526 103.43C101.568 95.8267 105.302 85.2517 105.735 74.2335C105.881 70.5406 104.902 68.3101 100.901 68.2084C97.8206 68.13 94.7209 68.2036 91.6382 68.2038L62.9743 68.2031C61.1389 68.2013 59.1952 68.0728 57.3715 68.241Z" fill="#1C2B35"/>
<path d="M25.9168 60.8853C29.6185 67.5304 34.5179 73.2901 40.253 78.1518C41.4098 79.1323 44.6491 81.3957 45.2682 82.554C45.991 83.9065 44.4277 85.3369 43.4849 84.9294C42.6278 84.5589 39.9167 82.1621 39.0343 81.4349C24.6577 69.5869 15.983 53.768 16 34.7645C16.0065 27.5155 18.569 28.6376 24.9075 27.635C31.3403 26.6172 37.1524 24.0627 42.4552 20.2274C44.0165 19.0982 46.4571 16.4991 47.9229 16.017C50.4526 15.817 51.3472 17.4213 53.1646 18.918C60.0697 24.605 67.3221 26.8716 75.8408 28.5263C77.37 28.8235 80.7759 28.988 80.9855 31.0885C81.2967 34.2082 76.495 32.0243 75.221 31.7801C65.1702 29.853 56.3485 26.8114 48.7095 19.3281C42.3088 24.956 36.2085 28.727 27.7021 30.5163C24.928 31.0998 21.9953 31.2461 19.275 32.0109C19.1511 43.218 20.3166 50.6921 25.9168 60.8853Z" fill="#1C2B35"/>
<path d="M74.6724 89.5419C67.972 84.6338 71.0253 75.7349 79.1092 75.054C86.7104 74.1368 91.7328 85.1499 84.473 89.2483C84.4578 93.7908 87.7399 101.163 79.9485 101.996C78.0902 102.058 76.3201 101.366 75.0876 100.013C72.6955 97.3887 74.4284 92.882 74.6724 89.5419ZM79.1974 78.3104C76.5989 78.5315 74.151 80.5472 74.4033 83.2026C74.7056 86.3851 77.9777 86.6661 78.0549 88.8477C78.1113 90.4433 77.828 92.1226 77.5708 93.696C77.2086 95.9113 76.3651 98.6797 79.857 98.6713C82.4726 98.2369 81.816 96.2314 81.5362 94.4131C81.2906 92.8164 80.8292 89.9025 80.9237 88.3551C81.0691 85.9725 85.2691 86.5508 84.3974 82.1453C83.9381 79.8242 81.5753 78.3267 79.1974 78.3104Z" fill="#1C2B35"/>
</svg>
