<svg width="118" height="118" viewBox="0 0 118 118" fill="none" xmlns="http://www.w3.org/2000/svg">
<path d="M46.9406 31.0092C46.6598 27.9312 46.7157 24.87 46.7167 21.7823C46.7179 18.0282 46.114 14.9583 48.908 12.0579C54.906 5.83114 70.5103 4.1503 78.8043 4.01104C86.3011 3.87828 113.53 4.79321 115.158 15.0967C116.743 25.1285 93.0169 27.4521 85.4015 27.829C75.9724 28.2959 58.5066 27.4781 50.8252 21.8083C50.9291 23.7873 50.2933 29.3335 51.6736 30.5708C61.097 39.0187 99.1529 38.5111 109.925 29.8387C111.296 28.7356 111.396 28.051 112.366 27.0281C114.035 25.2672 118.734 27.9483 112.817 32.85C102.768 41.174 81.0087 41.2852 68.4563 40.1153C71.3819 42.3133 73.4592 44.7783 75.8373 47.514C84.8392 48.7431 104.939 45.7291 111.359 39.7315C112.184 38.9604 112.572 37.7543 113.85 37.6615C115.05 37.574 115.947 38.3955 115.998 39.5985C116.098 41.9471 112.472 44.1816 110.77 45.2001C101.196 50.9302 89.4519 51.4381 78.5754 51.7142C79.6712 53.747 80.7754 55.7887 81.5592 57.9668C90.3023 58.1268 103.644 56.2568 110.453 51.2016C111.395 50.5027 112.593 48.5074 113.716 48.4072C116.16 48.1896 116.516 50.984 114.801 52.8113C107.954 60.1082 92.8046 61.7376 82.8846 62.0581C83.4383 64.2772 83.9052 66.5226 84.0799 68.8065C91.8582 68.7516 104.906 66.8997 111.012 61.49C111.774 60.8156 112.486 59.3684 113.566 59.2056C115.971 58.8434 116.636 61.5227 114.736 63.5627C108.008 70.7854 93.8732 72.5966 84.1964 72.8901C84.1855 75.2179 84.0088 77.5848 83.5783 79.8741C91.7749 79.5823 103.969 77.7421 110.619 72.6075C111.561 71.8334 112.473 70.1472 113.755 70.0445C114.746 69.9651 115.908 70.9315 115.949 71.9388C116.052 74.4879 111.87 76.8273 110.038 77.8429C101.705 82.4612 91.8085 83.5774 82.4462 83.8379C81.8188 86.1041 80.9417 88.2952 79.9456 90.4215C89.1127 90.4858 103.842 88.9212 110.748 83.2291C111.732 82.4177 112.473 80.7802 113.916 80.8016C115.12 80.8194 116.033 81.8585 115.925 83.0576C115.806 84.3686 114.416 85.4997 113.477 86.282C105.954 92.5555 87.9246 95.3026 77.7214 94.3592C76.2404 96.5798 74.5565 98.6029 72.8548 100.654C75.0696 100.699 77.2839 100.9 79.5012 100.934C88.3687 101.069 102.997 99.9742 110.386 94.3297C111.48 93.4936 112.295 91.9221 113.614 91.5114L113.715 91.4809C118.533 92.5962 113.935 96.8277 111.89 98.2238C102.074 104.926 80.5975 106.37 69.0011 104.172C66.5435 106.152 64.0521 107.732 61.3756 109.379C64.0731 109.611 66.813 110.199 69.5263 110.492C77.3723 111.338 85.3134 110.81 93.0686 109.453C94.3754 109.225 95.8423 108.749 97.158 108.699C99.0933 108.627 99.9061 110.909 98.4777 112.211C97.5903 113.021 95.3166 113.217 94.1136 113.44C82.7411 115.549 70.5887 115.624 59.2699 113.022C53.2956 111.649 56.5704 111.968 50.678 112.975C36.4102 115.413 21.6412 110.496 12.1033 99.3904C-12.1631 71.1369 10.3716 28.2185 46.9406 31.0092ZM79.9134 8.04374C72.0175 8.13901 61.7979 9.19496 54.6895 12.8615C50.4016 15.0734 49.3148 16.706 54.6064 19.3426C63.0996 23.5746 73.1415 23.6654 82.4046 23.8796C87.8945 23.7962 109.527 22.1641 111.227 15.9525C110.825 14.4866 109.604 13.7696 108.357 13.0555C100.111 8.33452 89.2478 8.21369 79.9134 8.04374ZM41.9946 35.0323C20.8275 35.9774 5.28161 53.4793 6.26656 74.5914C7.19465 94.4848 24.5567 110.229 44.3146 109.557C65.1828 108.512 81.2566 91.0294 80.1559 69.9502C79.1571 50.819 61.1631 34.1002 41.9946 35.0323Z" fill="#1C2B35"/>
<path d="M29.6563 90H57.3453C62.4363 90 65.663 84.6424 63.1019 80.3112L46.0132 51.4151C44.8981 49.5283 42.1035 49.5283 40.9884 51.4151L23.8963 80.3112C21.3385 84.6355 24.5653 90 29.6528 90H29.6563ZM46.0271 60.0806L49.7487 67.1075L58.7286 82.776C59.321 83.7788 58.5893 85.0639 57.3488 85.0639H46.0306V60.0772L46.0271 60.0806ZM28.2799 82.7793L37.2564 67.1041L40.978 60.0806V85.0673H29.6598C28.4192 85.0673 27.6876 83.7822 28.2799 82.7793Z" fill="#1C2B35"/>
</svg>
