<svg width="118" height="118" viewBox="0 0 118 118" fill="none" xmlns="http://www.w3.org/2000/svg">
<path d="M33.7101 87.5039C28.2681 86.4713 21.6299 82.3097 17.4474 78.7416C-0.413958 63.504 -1.68109 35.9221 13.4642 18.2577C21.148 9.29614 31.4819 4.95865 42.9907 4.06425C43.8481 3.96049 44.7874 4.01261 45.6519 4.01656C61.4249 4.08846 76.2515 12.9411 83.2577 27.2313C84.5575 29.8826 85.2897 32.7405 86.5171 35.4016L86.5707 35.5163C102.072 41.9097 112.507 54.1596 113.88 71.4473C115.436 91.0244 101.667 109.38 82.6412 113.818C79.8257 114.474 76.9954 114.77 74.1197 114.99C55.9538 115.375 40.0878 104.665 33.7101 87.5039ZM43.3747 7.64916C32.6193 8.4423 23.2949 12.3726 16.094 20.7404C1.98843 37.1323 3.72213 62.2946 20.1996 76.3909C23.8313 79.4977 28.0241 81.7469 32.474 83.436C31.9682 81.3431 31.6463 79.3262 31.5612 77.1735C20.8194 72.0082 12.3433 61.2844 11.9466 49.1206C10.8678 30.7374 23.9974 14.3781 42.7188 13.2602C57.1206 12.4001 70.7856 19.6889 76.2312 33.2727C78.2699 33.5683 80.3148 33.7745 82.3232 34.2546C77.0269 18.4704 62.6053 7.66015 45.9453 7.60638C45.1107 7.60375 44.202 7.55022 43.3747 7.64916ZM43.3857 16.7613C17.1461 18.338 5.71135 51.6822 25.2058 68.7541C27.0992 70.4121 29.2351 71.7587 31.3691 73.079C32.1545 66.2543 32.5113 62.0257 35.9655 55.5157C36.6685 54.1557 37.4455 52.8359 38.3143 51.5746C35.8248 48.4166 34.8831 45.0895 35.3696 41.071C36.6847 30.2053 49.9785 28.7456 53.5596 37.5968C60.1499 34.6216 65.0624 33.3102 72.33 33.1257C66.3374 22.5114 55.9473 15.706 43.3857 16.7613ZM44.3934 35.4224C38.224 36.3451 37.5863 44.2359 40.5231 48.5736C41.2381 47.693 41.9549 46.8189 42.7112 45.9734C45.0196 43.3804 47.6232 41.0177 50.6592 39.3038C49.2294 36.9552 47.292 35.0958 44.3934 35.4224ZM71.3386 36.7107C38.0572 38.2124 22.2218 78.8179 47.054 101.374C54.7106 108.329 63.7843 111.533 74.086 111.425C106.305 110.704 123.312 70.5113 98.6279 47.1061C91.5544 40.3992 81.1683 36.0533 71.3386 36.7107Z" fill="#1C2B35"/>
<path d="M72.626 105.999C55.5965 106.143 40.7799 92.7744 40.0304 76.0031C39.5297 64.8005 45.2565 54.3627 54.7036 48.2482C60.2821 44.6377 65.8864 43.2993 72.4962 43.0129C89.4683 42.5 104.901 57.3375 104.999 73.8893C105.105 91.7521 90.8743 105.921 72.626 105.999ZM71.0467 46.5688C62.9455 47.2346 55.6609 50.487 50.3677 56.6393C40.1451 68.5208 41.8706 86.0496 54.0044 95.9706C59.9124 100.802 66.6791 102.536 74.2513 102.438C100.154 100.229 111.287 69.7541 91.0873 53.2473C86.0774 49.1533 77.6653 45.6893 71.0467 46.5688Z" fill="#1C2B35"/>
<path d="M60.0069 92H84.9946C89.5889 92 92.5008 87.0442 90.1895 83.0379L74.768 56.309C73.7617 54.5637 71.2398 54.5637 70.2334 56.309L54.8089 83.0379C52.5006 87.0378 55.4126 92 60.0038 92H60.0069ZM74.7806 64.3246L78.1391 70.8244L86.2429 85.3178C86.7775 86.2454 86.1172 87.4341 84.9977 87.4341H74.7837V64.3214L74.7806 64.3246ZM58.7648 85.3209L66.8655 70.8213L70.224 64.3246V87.4373H60.0101C58.8905 87.4373 58.2302 86.2485 58.7648 85.3209Z" fill="#1C2B35"/>
</svg>
